# xmcd
#
# Track frame offsets:
#	150
#	19061
#	29383
#	41114
#	54634
#	66597
#	78364
#	91749
#	104242
#	115948
#	123686
#	136743
#	147906
#	160046
#
# Disc length: 2233 seconds
#
# Revision: 1
# Processed by: cddbd v1.5.2PL0 Copyright (c) Steve Scherf et al.
# Submitted via: audiograbber 1.83.01
#
DISCID=c608b70e
DTITLE=Dale Watson - The Truckin' Sessions Vol. 3
DYEAR=2016
DGENRE=Country
TTITLE0=It's been a long truckin day 
TTITLE1=Suicide sam 
TTITLE2=Phillip at the station 
TTITLE3=Freewheelin 
TTITLE4=I live on truckin' time 
TTITLE5=I gotta keep on keeping on 
TTITLE6=Texas Armadillo 
TTITLE7=Birmingham breakdown 
TTITLE8=I'm a truckin 
TTITLE9=Big T
TTITLE10=Lugnut Larry
TTITLE11=Kitty Liang
TTITLE12=We're truckin along 
TTITLE13=10-100 
EXTD=
EXTT0=
EXTT1=
EXTT2=
EXTT3=
EXTT4=
EXTT5=
EXTT6=
EXTT7=
EXTT8=
EXTT9=
EXTT10=
EXTT11=
EXTT12=
EXTT13=
PLAYORDER=
